<svg width="18" height="21" viewBox="0 0 18 21" fill="none" xmlns="http://www.w3.org/2000/svg">
<path d="M16.8722 20.7189C7.27411 20.7344 -0.0102573 12.3201 1.08421e-05 1.46037C1.08421e-05 0.751175 0.503691 0.173035 1.12501 0.173035H4.09429C4.65181 0.173035 5.12542 0.640619 5.20729 1.27009C5.4035 2.77876 5.78832 4.24749 6.35005 5.63143L6.46565 5.91624C6.6264 6.31227 6.51744 6.78281 6.20626 7.03647C5.28671 7.78603 4.93529 9.29481 5.65166 10.4721C6.55063 11.9494 7.68381 13.2426 8.97781 14.2683C10.0091 15.0857 11.3308 14.6847 11.9874 13.6352C12.2098 13.2799 12.6223 13.1554 12.9694 13.339L13.2178 13.4703C14.4304 14.1115 15.7172 14.5507 17.0391 14.7746C17.5906 14.8681 18 15.4086 18 16.045V19.4347C18 20.1439 17.4951 20.7189 16.8738 20.7188L16.8722 20.7189Z" fill="white"/>
</svg>
