<svg width="43" height="47" viewBox="0 0 43 47" fill="none" xmlns="http://www.w3.org/2000/svg">
<path d="M0 46.4983V5.16648C0 2.31311 2.13908 0 4.77778 0H38.2222C40.8609 0 43 2.31311 43 5.16648V30.9989C43 33.8522 40.8609 36.1653 38.2222 36.1653H14.3333C13.2993 36.1633 12.2928 36.5261 11.4667 37.1986L0 46.4983ZM4.77778 5.16648V36.1653L9.87567 32.0322C10.7014 31.3587 11.7081 30.9959 12.7423 30.9989H38.2222V5.16648H4.77778ZM19.1111 27.2816L10.2555 17.7029L13.6334 14.0528L19.1111 19.9762L29.3666 8.88634L32.7445 12.539L19.1111 27.279V27.2816Z" fill="#FFBD13"/>
</svg>
